{"title":"Pulp.Fiction.1994.720p-FLAWL3SS","uid":5491457,"size":3656645647,"categoryP":"video","categoryS":"hd___movies","magnet":"?xt=urn:btih:822e81a45ce4311b31ea6ffa989009b7e222628c&amp;dn=Pulp.Fiction.1994.720p-FLAWL3SS&amp;tr=udp%3A%2F%2Ftracker.openbittorrent.com%3A80&amp;tr=udp%3A%2F%2Fopen.demonii.com%3A1337&amp;tr=udp%3A%2F%2Ftracker.coppersurfer.tk%3A6969&amp;tr=udp%3A%2F%2Fexodus.desync.com%3A6969","seeders":1,"leechers":1,"uploader":"mfccorrea","files":5,"time":1271048509,"description":"Outrageously violent, time-twisting, and in love with language, Pulp Fiction was widely considered the most influential American movie of the 1990s. Director and co-screenwriter Quentin Tarantino synthesized such seemingly disparate traditions as the syncopated language of David Mamet; the serious violence of American gangster movies, crime movies, and films noirs mixed up with the wacky violence of cartoons, video games, and Japanese animation; and the fragmented story-telling structures of such experimental classics as Citizen Kane, Rashomon, and La jetÃƒÂ©e. The Oscar-winning script by Tarantino and Roger Avary intertwines three stories, featuring Samuel L. Jackson and John Travolta, in the role that single-handedly reignited his career, as hit men who have philosophical interchanges on such topics as the French names for American fast food products; Bruce Willis as a boxer out of a 1940s B-movie; and such other stalwarts as Harvey Keitel, Tim Roth, Christopher Walken, Eric Stoltz, Ving Rhames, and Uma Thurman, whose dance sequence with Travolta proved an instant classic. \n\n   General\n      Complete name : Pulp.Fiction.1994.720p-FLAWL3SS.avi\n      Format : AVI\n      Format/Info : Audio Video Interleave\n      Format profile : OpenDML\n      File size : 3.40 GiB\n      Duration : 2h 34mn\n      Overall bit rate : 3 159 Kbps\n      Writing application : VirtualDubMod 1.5.10.2 (build 2542/release)\n      Writing library : VirtualDubMod build 2542/release\n   Video #0\n      ID : 0\n      Format : MPEG-4 Visual\n      Format profile : AdvancedSimple@L5\n      Format settings, BVOP : Yes\n      Format settings, QPel : No\n      Format settings, GMC : No warppoints\n      Format settings, Matrix : Custom\n      Codec ID : XVID\n      Codec ID/Hint : XviD\n      Duration : 2h 34mn\n      Bit rate : 2 508 Kbps\n      Width : 1 280 pixels\n      Height : 544 pixels\n      Display aspect ratio : 2.35:1\n      Frame rate : 23.976 fps\n      Resolution : 24 bits\n      Colorimetry : 4:2:0\n      Scan type : Progressive\n      Bits/(Pixel*Frame) : 0.150\n      Stream size : 2.70 GiB (79%)\n      Writing library : XviD 1.2.1 (UTC 2008-12-04)\n   Audio #1\n      ID : 1\n      Format : AC-3\n      Format/Info : Audio Coding 3\n      Codec ID : 2000\n      Duration : 2h 34mn\n      Bit rate mode : Constant\n      Bit rate : 640 Kbps\n      Channel(s) : 6 channels\n      Channel positions : Front: L C R, Surround: L R, LFE\n      Sampling rate : 48.0 KHz\n      Stream size : 706 MiB (20%)\n      Alignment : Split accross interleaves\n      Interleave, duration : 42 ms (1.00 video frame)\n      Interleave, preload duration : 500 ms\n\nEnglish audio; English, Spanish, Italian and Portuguese subtitles\n &lt;a href=&quot;\nhttp://www.imdb.com/title/tt0110912/&quot; rel=&quot;nofollow&quot; target=&quot;_NEW&quot;&gt;\nhttp://www.imdb.com/title/tt0110912/&lt;/a&gt;","torrent":{"xt":"urn:btih:822e81a45ce4311b31ea6ffa989009b7e222628c","amp;dn":"Pulp.Fiction.1994.720p-FLAWL3SS","amp;tr":["udp%3A%2F%2Ftracker.openbittorrent.com%3A80","udp%3A%2F%2Fopen.demonii.com%3A1337","udp%3A%2F%2Ftracker.coppersurfer.tk%3A6969","udp%3A%2F%2Fexodus.desync.com%3A6969"],"infoHash":"822e81a45ce4311b31ea6ffa989009b7e222628c","infoHashBuffer":{"type":"Buffer","data":[130,46,129,164,92,228,49,27,49,234,111,250,152,144,9,183,226,34,98,140]},"announce":[],"urlList":[]}}